<svg width="456" height="456" xmlns="http://www.w3.org/2000/svg" version="1.1" clip-rule="evenodd">
 <g>
  <title>Layer 1</title>
  <g id="svg_8">
   <rect id="svg_6" height="456" width="456" y="0" x="0" fill="#182b35"/>
   <g stroke-width="0" id="svg_5">
    <g id="svg_1">
     <path fill="#fed843" d="m205.76459,144.22833c7.41706,0 14.83478,0 22.25185,0c0,39.04984 0,78.09941 0,117.14944c-12.06443,16.9389 -24.28115,33.73643 -36.65011,50.39389c-1.74527,0 -3.49046,0 -5.23573,0c-2.40248,-1.82792 -3.16604,-4.22785 -2.29064,-7.19913c8.89963,-23.53526 17.73492,-47.09603 26.50588,-70.68234c-7.84449,-0.54518 -15.69809,-0.8724 -23.56078,-0.9817c-2.14927,-0.91363 -3.24,-2.5498 -3.27233,-4.9085c6.44748,-27.09896 13.10124,-54.1502 19.96122,-81.1538c0.67534,-0.99917 1.43891,-1.87179 2.29064,-2.61786l-0.00001,0z" opacity="0.986" id="svg_2"/>
    </g>
    <g id="svg_3">
     <path fill="#fabe2c" d="m228.01643,144.22833c13.96173,0 27.92411,0 41.88584,0c2.68265,2.39833 3.22848,5.23434 1.63617,8.50806c-8.09312,13.22179 -16.05536,26.52931 -23.88801,39.92243c7.1893,0.54478 14.38844,0.872 21.59739,0.9817c2.85412,1.45672 3.83582,3.74734 2.94509,6.8719c-14.63583,20.40756 -29.36131,40.69601 -44.17646,60.86535c0,-39.05004 0,-78.0996 0,-117.14944l-0.00001,0z" id="svg_4"/>
    </g>
   </g>
  </g>
 </g>

</svg>