<svg width="456" height="456" xmlns="http://www.w3.org/2000/svg" version="1.1" clip-rule="evenodd">
 <defs>
  <linearGradient id="svg_7" x1="0" y1="0" x2="1" y2="0">
   <stop stop-color="#fed843" stop-opacity="0.99609" offset="0"/>
   <stop stop-color="#fabe2c" stop-opacity="0.99219" offset="0.76172"/>
  </linearGradient>
 </defs>
 <g>
  <title>Layer 1</title>
  <rect fill="#182b35" x="0" y="0" width="456" height="456" id="svg_8"/>
  <g id="svg_1">
   <path fill="url(#svg_7)" d="m204.76548,140.46423c22.34008,0 44.67949,0 67.01958,0c2.80319,2.5061 3.37354,5.46954 1.70969,8.89036c-8.45678,13.81588 -16.77678,27.72134 -24.96137,41.71627c7.51235,0.56926 15.03496,0.9112 22.56782,1.02581c2.98238,1.52217 4.00818,3.91572 3.07743,7.18067c-27.79466,39.06831 -55.94767,77.82135 -84.45834,116.25845c-1.82369,0 -3.6473,0 -5.47098,0c-2.51043,-1.91006 -3.30831,-4.41782 -2.39356,-7.52261c9.29951,-24.59277 18.53181,-49.2122 27.69687,-73.85831c-8.19698,-0.56967 -16.40345,-0.9116 -24.61943,-1.02581c-2.24584,-0.95469 -3.38558,-2.66437 -3.41936,-5.12905c6.73718,-28.31659 13.68991,-56.58333 20.85814,-84.80028c0.70569,-1.04406 1.50357,-1.9559 2.39356,-2.7355l-0.00002,0z" opacity="0.978" id="svg_2"/>
  </g>
 </g>
</svg>