<svg width="256" height="256" xmlns="http://www.w3.org/2000/svg" clip-rule="evenodd" version="1.1">
 <defs>
  <linearGradient y2="0" x2="1" y1="0" x1="0" id="svg_7">
   <stop offset="0" stop-opacity="0.99609" stop-color="#fed843"/>
   <stop offset="0.76172" stop-opacity="0.99219" stop-color="#fabe2c"/>
  </linearGradient>
 </defs>
 <g>
  <title>Layer 1</title>
  <g id="svg_1">
   <path id="svg_2" opacity="0.978" d="m106.86389,11.79081c20.32247,0 40.6443,0 60.96677,0c2.55003,2.27976 3.06886,4.97556 1.55528,8.08744c-7.69302,12.56811 -15.26161,25.21771 -22.70701,37.9487c6.83388,0.51785 13.67708,0.8289 20.52962,0.93317c2.71302,1.3847 3.64619,3.56208 2.79949,6.53216c-25.28441,35.53989 -50.89482,70.79299 -76.83057,105.75868c-1.65898,0 -3.3179,0 -4.97687,0c-2.2837,-1.73756 -3.00951,-4.01883 -2.17739,-6.84321c8.45964,-22.3717 16.85812,-44.76765 25.19545,-67.18786c-7.45667,-0.51822 -14.92199,-0.82927 -22.39595,-0.93317c-2.04301,-0.86847 -3.07981,-2.42374 -3.11055,-4.66582c6.12872,-25.7592 12.45351,-51.47306 18.97435,-77.14162c0.64195,-0.94976 1.36778,-1.77926 2.17739,-2.48844l-0.00002,0l0.00001,-0.00002z" fill="url(#svg_7)"/>
  </g>
  <text fill="url(#svg_7)" x="19.3992" y="211.28021" id="svg_3" stroke-width="0" font-size="24" font-family="'Noto Sans Display'" text-anchor="start" xml:space="preserve" font-style="italic" font-weight="bold">by Vitalii Voitovych</text>
 </g>
</svg>