<svg width="256" height="256" xmlns="http://www.w3.org/2000/svg" version="1.1" clip-rule="evenodd">
 <defs>
  <linearGradient id="svg_7" x1="0" y1="0" x2="1" y2="0">
   <stop stop-color="#fed843" stop-opacity="0.99609" offset="0"/>
   <stop stop-color="#fabe2c" stop-opacity="0.99219" offset="0.76172"/>
  </linearGradient>
 </defs>
 <g>
  <title>Layer 1</title>
  <g id="svg_1">
   <path fill="url(#svg_7)" d="m103.6168,36.13655c23.44456,0 46.88839,0 70.33295,0c2.94179,2.62999 3.54032,5.73994 1.79421,9.32989c-8.87488,14.49892 -17.60621,29.09185 -26.19543,43.77867c7.88375,0.59741 15.77826,0.95624 23.68354,1.07653c3.12981,1.59743 4.20635,4.10931 3.22957,7.53568c-29.16879,40.9998 -58.71367,81.66875 -88.63387,122.00614c-1.91385,0 -3.82762,0 -5.74145,0c-2.63454,-2.0045 -3.47185,-4.63623 -2.5119,-7.89452c9.75927,-25.80861 19.44799,-51.6452 29.06617,-77.50977c-8.60222,-0.59783 -17.21442,-0.95667 -25.83659,-1.07653c-2.35687,-1.00189 -3.55295,-2.79609 -3.58842,-5.38262c7.07026,-29.71652 14.36671,-59.38074 21.88933,-88.9927c0.74057,-1.09567 1.57791,-2.0526 2.5119,-2.87073l-0.00002,0l0.00001,-0.00002l0,-0.00001z" opacity="0.978" id="svg_2"/>
  </g>
 </g>
</svg>