<?xml version="1.0" encoding="UTF-8"?>
<!DOCTYPE svg PUBLIC "-//W3C//DTD SVG 1.1//EN" "http://www.w3.org/Graphics/SVG/1.1/DTD/svg11.dtd">
<svg xmlns="http://www.w3.org/2000/svg" version="1.1" width="64px" height="64px" style="shape-rendering:geometricPrecision; text-rendering:geometricPrecision; image-rendering:optimizeQuality; fill-rule:evenodd; clip-rule:evenodd" xmlns:xlink="http://www.w3.org/1999/xlink">
<g><path style="opacity:0.992" fill="#e6e6e6" d="M 31.5,-0.5 C 34.1667,-0.5 36.8333,-0.5 39.5,-0.5C 43.0085,0.78282 46.3418,2.44949 49.5,4.5C 47.0885,4.13673 45.5885,5.13673 45,7.5C 43.8152,15.4692 46.9819,20.8025 54.5,23.5C 57.005,24.4967 59.6717,24.4967 62.5,23.5C 62.8333,23.5 63.1667,23.5 63.5,23.5C 63.5,28.8333 63.5,34.1667 63.5,39.5C 62.2172,43.0085 60.5505,46.3418 58.5,49.5C 56.9063,44.8752 53.9063,43.2085 49.5,44.5C 46.1076,45.5641 44.1076,47.8975 43.5,51.5C 44.1767,54.8673 45.8433,57.534 48.5,59.5C 45.4279,60.85 42.4279,62.1833 39.5,63.5C 36.8333,63.5 34.1667,63.5 31.5,63.5C 13.6055,59.928 4.27218,48.928 3.5,30.5C 5.19716,13.1414 14.5305,2.80808 31.5,-0.5 Z"/></g>
<g><path style="opacity:1" fill="#c0c0c0" d="M 49.5,4.5 C 47.2091,12.4653 49.5424,18.6319 56.5,23C 55.9056,23.4643 55.2389,23.631 54.5,23.5C 46.9819,20.8025 43.8152,15.4692 45,7.5C 45.5885,5.13673 47.0885,4.13673 49.5,4.5 Z"/></g>
<g><path style="opacity:1" fill="#cfcfcf" d="M 49.5,4.5 C 56.5805,8.92039 60.9139,15.2537 62.5,23.5C 59.6717,24.4967 57.005,24.4967 54.5,23.5C 55.2389,23.631 55.9056,23.4643 56.5,23C 49.5424,18.6319 47.2091,12.4653 49.5,4.5 Z"/></g>
<g><path style="opacity:1" fill="#d1d1d1" d="M 23.5,-0.5 C 26.1667,-0.5 28.8333,-0.5 31.5,-0.5C 14.5305,2.80808 5.19716,13.1414 3.5,30.5C 4.27218,48.928 13.6055,59.928 31.5,63.5C 28.8333,63.5 26.1667,63.5 23.5,63.5C 11.1667,59.8333 3.16667,51.8333 -0.5,39.5C -0.5,34.1667 -0.5,28.8333 -0.5,23.5C 3.16667,11.1667 11.1667,3.16667 23.5,-0.5 Z"/></g>
<g><path style="opacity:1" fill="#c1c1c1" d="M 32.5,5.5 C 26.3361,9.84955 26.0028,14.6829 31.5,20C 30.9056,20.4643 30.2389,20.631 29.5,20.5C 22.7895,17.4366 21.7895,12.9366 26.5,7C 28.3453,5.87201 30.3453,5.37201 32.5,5.5 Z"/></g>
<g><path style="opacity:1" fill="#cecece" d="M 32.5,5.5 C 38.1251,7.62658 39.9584,11.6266 38,17.5C 35.7004,20.7624 32.8671,21.7624 29.5,20.5C 30.2389,20.631 30.9056,20.4643 31.5,20C 26.0028,14.6829 26.3361,9.84955 32.5,5.5 Z"/></g>
<g><path style="opacity:1" fill="#c5c5c5" d="M 48.5,29.5 C 54.4877,29.664 55.821,32.164 52.5,37C 46.8121,36.7902 45.4788,34.2902 48.5,29.5 Z"/></g>
<g><path style="opacity:1" fill="#c2c2c2" d="M 33.5,29.5 C 36.9563,30.5362 37.2896,32.2029 34.5,34.5C 32.2957,33.218 31.9624,31.5514 33.5,29.5 Z"/></g>
<g><path style="opacity:1" fill="#d0d0d0" d="M 49.5,44.5 C 53.9063,43.2085 56.9063,44.8752 58.5,49.5C 56.8333,53.1667 54.1667,55.8333 50.5,57.5C 47.5752,53.0666 47.9086,48.8999 51.5,45C 50.9056,44.5357 50.2389,44.369 49.5,44.5 Z"/></g>
<g><path style="opacity:1" fill="#c2c2c2" d="M 49.5,44.5 C 50.2389,44.369 50.9056,44.5357 51.5,45C 47.9086,48.8999 47.5752,53.0666 50.5,57.5C 50.1667,58.5 49.5,59.1667 48.5,59.5C 45.8433,57.534 44.1767,54.8673 43.5,51.5C 44.1076,47.8975 46.1076,45.5641 49.5,44.5 Z"/></g>
<g><path style="opacity:1" fill="#c1c1c1" d="M 34.5,50.5 C 35.5,50.5 36.5,50.5 37.5,50.5C 36.7542,54.31 35.7542,54.31 34.5,50.5 Z"/></g>
</svg>
