<?xml version="1.0" encoding="UTF-8"?>
<!DOCTYPE svg PUBLIC "-//W3C//DTD SVG 1.1//EN" "http://www.w3.org/Graphics/SVG/1.1/DTD/svg11.dtd">
<svg xmlns="http://www.w3.org/2000/svg" version="1.1" width="64px" height="64px" style="shape-rendering:geometricPrecision; text-rendering:geometricPrecision; image-rendering:optimizeQuality; fill-rule:evenodd; clip-rule:evenodd" xmlns:xlink="http://www.w3.org/1999/xlink">
<g><path style="opacity:0.95" fill="#fed402" d="M 29.5,-0.5 C 30.8333,-0.5 32.1667,-0.5 33.5,-0.5C 33.5,2.16667 33.5,4.83333 33.5,7.5C 32.1667,7.5 30.8333,7.5 29.5,7.5C 29.5,4.83333 29.5,2.16667 29.5,-0.5 Z"/></g>
<g><path style="opacity:0.793" fill="#fed801" d="M 19.5,5.5 C 21.6648,5.11589 23.3315,5.78256 24.5,7.5C 23.3315,9.21744 21.6648,9.88411 19.5,9.5C 19.5,8.16667 19.5,6.83333 19.5,5.5 Z"/></g>
<g><path style="opacity:0.884" fill="#fed801" d="M 39.5,5.5 C 40.8333,5.5 42.1667,5.5 43.5,5.5C 43.5,6.83333 43.5,8.16667 43.5,9.5C 39.56,10.234 38.2266,8.90066 39.5,5.5 Z"/></g>
<g><path style="opacity:0.786" fill="#fed501" d="M 8.5,7.5 C 11.2626,7.74381 13.4293,9.07714 15,11.5C 15.8333,14.6667 14.6667,15.8333 11.5,15C 8.15552,13.2325 7.15552,10.7325 8.5,7.5 Z"/></g>
<g><path style="opacity:0.792" fill="#fed501" d="M 51.5,7.5 C 53.6348,7.14696 54.9681,7.98029 55.5,10C 54.3333,12.5 52.5,14.3333 50,15.5C 48.5,15.3333 47.6667,14.5 47.5,13C 48.6502,11.019 49.9835,9.18571 51.5,7.5 Z"/></g>
<g><path style="opacity:1" fill="#fac700" d="M 33.5,11.5 C 19.1016,17.5027 14.9349,27.836 21,42.5C 24.2991,46.8821 28.4657,49.8821 33.5,51.5C 19.4694,52.1341 12.1361,45.4674 11.5,31.5C 12.1361,17.5326 19.4694,10.8659 33.5,11.5 Z"/></g>
<g><path style="opacity:0.985" fill="#fed301" d="M 33.5,11.5 C 45.4425,12.7774 51.4425,19.4441 51.5,31.5C 51.4425,43.5559 45.4425,50.2226 33.5,51.5C 28.4657,49.8821 24.2991,46.8821 21,42.5C 14.9349,27.836 19.1016,17.5027 33.5,11.5 Z"/></g>
<g><path style="opacity:0.786" fill="#feda01" d="M 5.5,19.5 C 6.83333,19.5 8.16667,19.5 9.5,19.5C 9.71611,24.7269 8.04944,25.5603 4.5,22C 5.25244,21.3292 5.58577,20.4959 5.5,19.5 Z"/></g>
<g><path style="opacity:0.872" fill="#feda01" d="M 53.5,19.5 C 58.5837,19.9658 59.2504,21.6325 55.5,24.5C 53.7826,23.3315 53.1159,21.6648 53.5,19.5 Z"/></g>
<g><path style="opacity:0.95" fill="#fed402" d="M -0.5,29.5 C 2.16667,29.5 4.83333,29.5 7.5,29.5C 7.5,30.8333 7.5,32.1667 7.5,33.5C 4.83333,33.5 2.16667,33.5 -0.5,33.5C -0.5,32.1667 -0.5,30.8333 -0.5,29.5 Z"/></g>
<g><path style="opacity:0.95" fill="#fed402" d="M 63.5,29.5 C 63.5,30.8333 63.5,32.1667 63.5,33.5C 60.8333,33.5 58.1667,33.5 55.5,33.5C 55.5,32.1667 55.5,30.8333 55.5,29.5C 58.1667,29.5 60.8333,29.5 63.5,29.5 Z"/></g>
<g><path style="opacity:0.797" fill="#fed801" d="M 6.5,38.5 C 8.75934,39.344 9.75934,41.0107 9.5,43.5C 4.96663,43.4204 3.96663,41.7538 6.5,38.5 Z"/></g>
<g><path style="opacity:0.935" fill="#fed801" d="M 55.5,38.5 C 59.2739,41.3248 58.6072,42.9915 53.5,43.5C 53.3653,41.4458 54.032,39.7791 55.5,38.5 Z"/></g>
<g><path style="opacity:0.777" fill="#fed501" d="M 11.5,47.5 C 13.6348,47.147 14.9681,47.9803 15.5,50C 14.3333,52.5 12.5,54.3333 10,55.5C 8.5,55.3333 7.66667,54.5 7.5,53C 8.65019,51.019 9.98352,49.1857 11.5,47.5 Z"/></g>
<g><path style="opacity:0.803" fill="#fed401" d="M 48.5,47.5 C 51.2626,47.7438 53.4293,49.0771 55,51.5C 55.557,53.5859 54.7236,54.9193 52.5,55.5C 48.7099,53.7909 47.3766,51.1242 48.5,47.5 Z"/></g>
<g><path style="opacity:0.831" fill="#fed801" d="M 19.5,53.5 C 21.6648,53.1159 23.3315,53.7826 24.5,55.5C 23.3315,57.2174 21.6648,57.8841 19.5,57.5C 19.5,56.1667 19.5,54.8333 19.5,53.5 Z"/></g>
<g><path style="opacity:0.884" fill="#fed801" d="M 39.5,53.5 C 40.8333,53.5 42.1667,53.5 43.5,53.5C 43.5,54.8333 43.5,56.1667 43.5,57.5C 39.56,58.234 38.2266,56.9007 39.5,53.5 Z"/></g>
<g><path style="opacity:0.95" fill="#fed402" d="M 33.5,63.5 C 32.1667,63.5 30.8333,63.5 29.5,63.5C 29.5,60.8333 29.5,58.1667 29.5,55.5C 30.8333,55.5 32.1667,55.5 33.5,55.5C 33.5,58.1667 33.5,60.8333 33.5,63.5 Z"/></g>
</svg>
